<svg width="1490" height="423" viewBox="0 0 1490 423" fill="none" xmlns="http://www.w3.org/2000/svg">
<rect x="1" y="1" width="1489" height="422" fill="#0E1035"/>
<mask id="mask0_186_1860" style="mask-type:alpha" maskUnits="userSpaceOnUse" x="0" y="0" width="1490" height="423">
<rect x="0.500244" y="0.657715" width="1489.5" height="422" rx="84.1172" fill="#F2994A"/>
</mask>
<g mask="url(#mask0_186_1860)">
<path d="M1096.43 494.025C929.675 395.397 780.117 175.486 937.611 51.6642C1083.63 -63.1391 1159.66 63.992 1328.72 -9.18331C1497.78 -82.3586 1414.31 -293.966 1607.24 -345.667C1719.23 -375.676 1855.88 -327.407 1928.18 -217.019C2000.47 -106.631 2008.41 65.8756 1862.97 284.343C1725.58 490.711 1558.17 557.456 1412.99 565.447C1267.81 573.439 1144.87 522.674 1096.43 494.025Z" stroke="white" stroke-opacity="0.4" stroke-width="2.10293" stroke-miterlimit="10"/>
<path d="M1843.04 284.42C1717.33 473.828 1563.87 535.927 1430.25 543.865C1297.5 551.578 1184.68 505.775 1139.01 479.372C983.907 389.103 844.495 186.36 985.555 69.5578C1115.8 -38.2916 1186.25 73.0963 1341.27 4.85099C1345.68 2.89594 1349.9 0.844074 1353.96 -1.29943C1463.94 -59.3125 1449.75 -184.983 1523.65 -257.619C1543.71 -277.336 1570.16 -293.248 1607.17 -302.76C1713.64 -330.12 1839.79 -284.564 1905.82 -182.148C1972.04 -79.1656 1977.43 81.5137 1843.04 284.42Z" stroke="white" stroke-opacity="0.4" stroke-width="2.10293" stroke-miterlimit="10"/>
<path d="M1823.09 284.301C1709.1 456.774 1569.62 514.256 1447.56 522.168C1327.23 529.627 1224.42 488.921 1181.61 464.656C1037.81 383.163 908.82 197.261 1033.43 87.4148C1147.87 -13.4739 1213.05 82.5225 1353.73 18.7795C1357.79 16.9424 1361.67 14.9979 1365.41 12.9849C1466.58 -41.2877 1458.51 -154.735 1528.79 -219.636C1547.97 -237.358 1572.8 -251.652 1606.93 -260.007C1707.91 -284.722 1823.54 -241.919 1883.33 -147.486C1943.49 -51.9217 1946.38 96.9285 1823.09 284.301Z" stroke="white" stroke-opacity="0.4" stroke-width="2.10293" stroke-miterlimit="10"/>
<path d="M1803.14 284.184C1700.87 439.722 1575.39 492.838 1464.86 500.472C1356.99 507.922 1264.22 472.005 1224.21 449.943C1091.91 377.004 973.14 208.21 1081.29 105.274C1179.94 11.39 1239.69 91.72 1366.19 32.7098C1369.89 30.9838 1373.43 29.1529 1376.86 27.2709C1469.21 -23.262 1467.3 -124.483 1533.92 -181.652C1552.25 -197.377 1575.45 -210.04 1606.7 -217.254C1702.19 -239.298 1807.29 -199.273 1860.84 -112.825C1914.95 -24.6763 1915.32 112.346 1803.14 284.184Z" stroke="white" stroke-opacity="0.4" stroke-width="2.10293" stroke-miterlimit="10"/>
<path d="M1783.18 284.066C1693 422.821 1581.15 471.241 1482.16 478.776C1386.73 486.039 1304.03 455.083 1266.81 435.228C1146.05 370.818 1037.46 219.22 1129.16 123.132C1212.02 36.3129 1266.32 100.887 1378.65 46.6396C1381.99 45.024 1385.19 43.3079 1388.31 41.5563C1471.84 -5.23628 1476.13 -94.2243 1539.06 -143.669C1556.53 -157.396 1578.1 -168.41 1606.46 -174.501C1696.5 -193.843 1791.28 -156.725 1838.35 -78.162C1886.66 2.46769 1884.67 127.933 1783.18 284.066Z" stroke="white" stroke-opacity="0.4" stroke-width="2.10293" stroke-miterlimit="10"/>
<path d="M1763.23 283.948C1684.82 405.791 1586.91 449.635 1499.46 457.079C1416.48 464.145 1343.85 438.153 1309.41 420.514C1200.22 364.597 1101.8 230.316 1177.03 140.99C1244.13 61.3154 1292.93 110.015 1391.11 60.5688C1394.1 59.0627 1396.96 57.4617 1399.75 55.8413C1474.47 12.7885 1485.01 -63.9513 1544.2 -105.686C1560.83 -117.412 1580.78 -126.758 1606.22 -131.747C1690.85 -148.342 1775.07 -114.092 1815.86 -43.5006C1858.16 29.6995 1853.69 143.38 1763.23 283.948Z" stroke="white" stroke-opacity="0.4" stroke-width="2.10293" stroke-miterlimit="10"/>
<path d="M1743.28 283.83C1676.63 388.751 1592.66 428.014 1516.77 435.382C1446.22 442.232 1383.68 421.212 1352.01 405.799C1254.44 358.329 1166.21 241.531 1224.9 158.848C1276.32 86.4267 1319.52 119.092 1403.57 74.4995C1406.2 73.1018 1408.72 71.6176 1411.2 70.1277C1477.11 30.8151 1493.95 -33.6478 1549.34 -67.7021C1565.14 -77.4213 1583.46 -85.078 1605.98 -88.9938C1685.23 -102.772 1758.84 -71.4501 1793.37 -8.83782C1829.64 56.9388 1822.69 158.818 1743.28 283.83Z" stroke="white" stroke-opacity="0.4" stroke-width="2.10293" stroke-miterlimit="10"/>
<path d="M1723.33 283.712C1668.4 371.696 1598.43 406.369 1534.07 413.686C1475.96 420.293 1423.53 404.251 1394.61 391.085C1308.73 351.994 1225.75 250.943 1272.77 176.706C1312.91 113.343 1346.06 128.097 1416.03 88.4286C1418.3 87.1372 1420.49 85.7719 1422.65 84.4121C1479.74 48.8393 1502.97 -3.29507 1554.47 -29.7195C1569.48 -37.4178 1586.16 -43.3633 1605.75 -46.2412C1679.65 -57.1009 1742.59 -28.7984 1770.88 25.8238C1801.1 84.1886 1791.67 174.242 1723.33 283.712Z" stroke="white" stroke-opacity="0.4" stroke-width="2.10293" stroke-miterlimit="10"/>
<path d="M1703.38 283.595C1660.12 354.62 1604.18 384.681 1551.37 391.99C1505.7 398.311 1463.4 387.259 1437.2 376.372C1363.08 345.564 1295.6 264.432 1320.64 194.564C1341.25 137.075 1372.53 137.006 1428.48 102.359C1430.4 101.171 1432.25 99.9265 1434.1 98.6979C1482.38 66.8656 1512.07 27.1501 1559.61 8.26441C1573.84 2.6133 1588.87 -1.6011 1605.51 -3.48732C1674.11 -11.2625 1726.3 13.8674 1748.39 60.4865C1772.53 111.452 1760.59 189.642 1703.38 283.595Z" stroke="white" stroke-opacity="0.4" stroke-width="2.10293" stroke-miterlimit="10"/>
<path d="M1683.42 283.477C1651.77 337.51 1609.93 362.905 1568.68 370.294C1535.43 376.249 1503.31 370.212 1479.8 361.657C1417.52 338.983 1361.08 276.046 1368.51 212.422C1374.34 162.536 1398.86 145.776 1440.94 116.288C1442.5 115.199 1444.02 114.081 1445.55 112.983C1485.01 84.8909 1521.22 57.7454 1564.75 46.2474C1578.21 42.6907 1591.58 40.2188 1605.27 39.265C1668.6 34.8549 1709.96 56.5492 1725.9 95.148C1743.89 138.735 1729.4 204.999 1683.42 283.477Z" stroke="white" stroke-opacity="0.4" stroke-width="2.10293" stroke-miterlimit="10"/>
<path d="M1416.38 230.281C1407.76 185.969 1426.35 151.621 1457 127.269C1487.64 102.916 1530.33 88.5598 1569.89 84.2312C1651.05 75.3497 1691.68 93.5827 1703.41 129.81C1715.13 166.038 1697.95 220.261 1663.47 283.359C1629 346.457 1572.78 361.72 1522.41 346.942C1472.03 332.165 1427.49 287.347 1416.38 230.281Z" stroke="white" stroke-opacity="0.4" stroke-width="2.10293" stroke-miterlimit="10"/>
</g>
</svg>
